<?xml version="1.0" encoding="utf-8"?>
<!-- Generator: Adobe Illustrator 26.0.0, SVG Export Plug-In . SVG Version: 6.00 Build 0)  -->
<svg version="1.1" id="Ebene_1" xmlns="http://www.w3.org/2000/svg" xmlns:xlink="http://www.w3.org/1999/xlink" x="0px" y="0px"
	 viewBox="0 0 32 32" style="enable-background:new 0 0 32 32;" xml:space="preserve">
<style type="text/css">
	.st0{fill:#383838;}
	.st1{fill:#F3F3F4;}
</style>
<path class="st0" d="M26.33,32H5.67C2.55,32,0,29.45,0,26.33V5.67C0,2.55,2.55,0,5.67,0h20.66C29.45,0,32,2.55,32,5.67v20.66
	C32,29.45,29.45,32,26.33,32z"/>
<g>
	<path class="st1" d="M28.83,23.24l-0.22-0.67c-0.17-0.52-0.72-0.8-1.24-0.63c-0.52,0.17-0.8,0.73-0.63,1.24l0.17,0.52v1.84H5.8
		v-1.82l1.34-3.51h19.12c0.54,0,0.98-0.44,0.98-0.98V5.47c0-0.54-0.44-0.98-0.98-0.98H6.46c-0.54,0-0.98,0.44-0.98,0.98v9.87
		c0,0.54,0.44,0.98,0.98,0.98s0.98-0.44,0.98-0.98V6.45h17.83v11.79H6.46c-0.03,0-0.06,0-0.09,0c-0.01,0-0.02,0-0.03,0
		c-0.02,0-0.04,0.01-0.06,0.01c-0.01,0-0.02,0-0.03,0.01c-0.02,0-0.04,0.01-0.06,0.02c-0.01,0-0.02,0.01-0.04,0.01
		c-0.02,0.01-0.04,0.01-0.06,0.02c-0.01,0-0.02,0.01-0.03,0.02c-0.01,0.01-0.03,0.01-0.04,0.02C6,18.36,5.98,18.37,5.97,18.37
		c-0.02,0.01-0.03,0.02-0.04,0.03c-0.01,0.01-0.02,0.01-0.03,0.02c-0.02,0.02-0.04,0.03-0.06,0.05c-0.01,0.01-0.01,0.01-0.02,0.02
		c-0.01,0.01-0.03,0.03-0.04,0.04c-0.01,0.01-0.02,0.02-0.02,0.02c-0.01,0.01-0.03,0.03-0.04,0.04c-0.01,0.01-0.01,0.02-0.02,0.02
		c-0.01,0.02-0.03,0.04-0.04,0.06c-0.01,0.01-0.01,0.02-0.02,0.03c-0.01,0.02-0.02,0.03-0.03,0.05c-0.01,0.01-0.01,0.02-0.02,0.04
		c-0.01,0.01-0.01,0.03-0.02,0.04c-0.01,0.01-0.01,0.03-0.02,0.04c0,0,0,0.01-0.01,0.01l-1.64,4.32c-0.04,0.11-0.06,0.23-0.06,0.35
		v2.99c0,0.54,0.44,0.98,0.98,0.98H27.9c0.54,0,0.98-0.44,0.98-0.98v-2.99C28.88,23.44,28.86,23.34,28.83,23.24z"/>
	<path class="st1" d="M14.48,22.23c-0.54,0-0.98,0.44-0.98,0.98s0.44,0.98,0.98,0.98h3.74c0.54,0,0.98-0.44,0.98-0.98
		s-0.44-0.98-0.98-0.98H14.48z"/>
	<path class="st1" d="M23.84,10.84c0-1.66-1.3-2.86-3.26-2.86h-3.02v8.75h1.69v-3.15h1.34c0.05,0,0.1,0,0.14,0l1.8,3.15h1.94
		l-2.15-3.5C23.25,12.79,23.84,11.94,23.84,10.84z M20.58,12.11h-1.34V9.55h1.34c0.95,0,1.52,0.5,1.52,1.29
		C22.1,11.71,21.45,12.11,20.58,12.11z"/>
	<polygon class="st1" points="13.36,15.16 13.92,15.16 16.53,10.93 16.53,7.98 16.42,7.98 13.63,12.47 10.85,7.98 9.05,7.98 
		9.05,16.72 10.73,16.72 10.73,10.93 	"/>
</g>
</svg>
